<svg xmlns="http://www.w3.org/2000/svg" width="52.496" height="48.349" viewBox="0 0 52.496 48.349"><defs><style>.a{fill:#fff;stroke:#dbdbdb;stroke-width:5.6px;}.b{fill:#dbdbdb;}.c{stroke:none;}.d{fill:none;}</style></defs><g transform="translate(-13)"><g class="a" transform="translate(13)"><ellipse class="c" cx="26.248" cy="24.174" rx="26.248" ry="24.174"/><ellipse class="d" cx="26.248" cy="24.174" rx="23.448" ry="21.374"/></g><path class="b" d="M4.621,0A4.783,4.783,0,0,0,0,4.927V21.352A4.783,4.783,0,0,0,4.621,26.28h15.4a1.646,1.646,0,0,0,0-3.285V19.71a1.592,1.592,0,0,0,1.54-1.642V1.642A1.592,1.592,0,0,0,20.023,0H4.621Zm0,19.71H16.943v3.285H4.621a1.646,1.646,0,0,1,0-3.285ZM6.161,7.391a.8.8,0,0,1,.77-.821h9.241a.823.823,0,0,1,0,1.642H6.931A.8.8,0,0,1,6.161,7.391Zm.77,2.464h9.241a.823.823,0,0,1,0,1.642H6.931a.823.823,0,0,1,0-1.642Z" transform="translate(28 11)"/></g></svg>