<svg xmlns="http://www.w3.org/2000/svg" width="1146.866" height="489.128" viewBox="0 0 1146.866 489.128"><defs><style>.a{fill:#f7741e;}.b{fill:#dbdbdb;}</style></defs><g transform="translate(-324 -542.881)"><path class="a" d="M17.767,7.606a7.606,7.606,0,1,1,7.606,7.606,7.606,7.606,0,0,1-7.606-7.606Zm6.338,48.17V76.058a5.071,5.071,0,1,1-10.141,0V40.707L9.432,48.249A5.068,5.068,0,0,1,.749,43.02L9.987,27.65a15.225,15.225,0,0,1,13.041-7.384h4.706A15.225,15.225,0,0,1,40.774,27.65l9.238,15.37a5.068,5.068,0,0,1-8.683,5.229l-4.548-7.542V76.058a5.071,5.071,0,1,1-10.141,0V55.776Z" transform="translate(323.976 644.881)"/><path class="a" d="M17.767,7.606a7.606,7.606,0,1,1,7.606,7.606,7.606,7.606,0,0,1-7.606-7.606Zm6.338,48.17V76.058a5.071,5.071,0,1,1-10.141,0V40.707L9.432,48.249A5.068,5.068,0,0,1,.749,43.02L9.987,27.65a15.225,15.225,0,0,1,13.041-7.384h4.706A15.225,15.225,0,0,1,40.774,27.65l9.238,15.37a5.068,5.068,0,0,1-8.683,5.229l-4.548-7.542V76.058a5.071,5.071,0,1,1-10.141,0V55.776Z" transform="translate(381.668 644.881)"/><path class="a" d="M17.767,7.606a7.606,7.606,0,1,1,7.606,7.606,7.606,7.606,0,0,1-7.606-7.606Zm6.338,48.17V76.058a5.071,5.071,0,1,1-10.141,0V40.707L9.432,48.249A5.068,5.068,0,0,1,.749,43.02L9.987,27.65a15.225,15.225,0,0,1,13.041-7.384h4.706A15.225,15.225,0,0,1,40.774,27.65l9.238,15.37a5.068,5.068,0,0,1-8.683,5.229l-4.548-7.542V76.058a5.071,5.071,0,1,1-10.141,0V55.776Z" transform="translate(439.36 644.881)"/><path class="a" d="M17.767,7.606a7.606,7.606,0,1,1,7.606,7.606,7.606,7.606,0,0,1-7.606-7.606Zm6.338,48.17V76.058a5.071,5.071,0,1,1-10.141,0V40.707L9.432,48.249A5.068,5.068,0,0,1,.749,43.02L9.987,27.65a15.225,15.225,0,0,1,13.041-7.384h4.706A15.225,15.225,0,0,1,40.774,27.65l9.238,15.37a5.068,5.068,0,0,1-8.683,5.229l-4.548-7.542V76.058a5.071,5.071,0,1,1-10.141,0V55.776Z" transform="translate(497.053 644.881)"/><path class="a" d="M17.767,7.606a7.606,7.606,0,1,1,7.606,7.606,7.606,7.606,0,0,1-7.606-7.606Zm6.338,48.17V76.058a5.071,5.071,0,1,1-10.141,0V40.707L9.432,48.249A5.068,5.068,0,0,1,.749,43.02L9.987,27.65a15.225,15.225,0,0,1,13.041-7.384h4.706A15.225,15.225,0,0,1,40.774,27.65l9.238,15.37a5.068,5.068,0,0,1-8.683,5.229l-4.548-7.542V76.058a5.071,5.071,0,1,1-10.141,0V55.776Z" transform="translate(554.745 644.881)"/><path class="a" d="M17.767,7.606a7.606,7.606,0,1,1,7.606,7.606,7.606,7.606,0,0,1-7.606-7.606Zm6.338,48.17V76.058a5.071,5.071,0,1,1-10.141,0V40.707L9.432,48.249A5.068,5.068,0,0,1,.749,43.02L9.987,27.65a15.225,15.225,0,0,1,13.041-7.384h4.706A15.225,15.225,0,0,1,40.774,27.65l9.238,15.37a5.068,5.068,0,0,1-8.683,5.229l-4.548-7.542V76.058a5.071,5.071,0,1,1-10.141,0V55.776Z" transform="translate(612.437 644.881)"/><path class="a" d="M17.767,7.606a7.606,7.606,0,1,1,7.606,7.606,7.606,7.606,0,0,1-7.606-7.606Zm6.338,48.17V76.058a5.071,5.071,0,1,1-10.141,0V40.707L9.432,48.249A5.068,5.068,0,0,1,.749,43.02L9.987,27.65a15.225,15.225,0,0,1,13.041-7.384h4.706A15.225,15.225,0,0,1,40.774,27.65l9.238,15.37a5.068,5.068,0,0,1-8.683,5.229l-4.548-7.542V76.058a5.071,5.071,0,1,1-10.141,0V55.776Z" transform="translate(670.129 644.881)"/><path class="a" d="M17.767,7.606a7.606,7.606,0,1,1,7.606,7.606,7.606,7.606,0,0,1-7.606-7.606Zm6.338,48.17V76.058a5.071,5.071,0,1,1-10.141,0V40.707L9.432,48.249A5.068,5.068,0,0,1,.749,43.02L9.987,27.65a15.225,15.225,0,0,1,13.041-7.384h4.706A15.225,15.225,0,0,1,40.774,27.65l9.238,15.37a5.068,5.068,0,0,1-8.683,5.229l-4.548-7.542V76.058a5.071,5.071,0,1,1-10.141,0V55.776Z" transform="translate(727.822 644.881)"/><path class="a" d="M17.767,7.606a7.606,7.606,0,1,1,7.606,7.606,7.606,7.606,0,0,1-7.606-7.606Zm6.338,48.17V76.058a5.071,5.071,0,1,1-10.141,0V40.707L9.432,48.249A5.068,5.068,0,0,1,.749,43.02L9.987,27.65a15.225,15.225,0,0,1,13.041-7.384h4.706A15.225,15.225,0,0,1,40.774,27.65l9.238,15.37a5.068,5.068,0,0,1-8.683,5.229l-4.548-7.542V76.058a5.071,5.071,0,1,1-10.141,0V55.776Z" transform="translate(785.514 644.881)"/><path class="a" d="M17.767,7.606a7.606,7.606,0,1,1,7.606,7.606,7.606,7.606,0,0,1-7.606-7.606Zm6.338,48.17V76.058a5.071,5.071,0,1,1-10.141,0V40.707L9.432,48.249A5.068,5.068,0,0,1,.749,43.02L9.987,27.65a15.225,15.225,0,0,1,13.041-7.384h4.706A15.225,15.225,0,0,1,40.774,27.65l9.238,15.37a5.068,5.068,0,0,1-8.683,5.229l-4.548-7.542V76.058a5.071,5.071,0,1,1-10.141,0V55.776Z" transform="translate(843.206 644.881)"/><path class="a" d="M17.767,7.606a7.606,7.606,0,1,1,7.606,7.606,7.606,7.606,0,0,1-7.606-7.606Zm6.338,48.17V76.058a5.071,5.071,0,1,1-10.141,0V40.707L9.432,48.249A5.068,5.068,0,0,1,.749,43.02L9.987,27.65a15.225,15.225,0,0,1,13.041-7.384h4.706A15.225,15.225,0,0,1,40.774,27.65l9.238,15.37a5.068,5.068,0,0,1-8.683,5.229l-4.548-7.542V76.058a5.071,5.071,0,1,1-10.141,0V55.776Z" transform="translate(900.898 644.881)"/><path class="a" d="M17.767,7.606a7.606,7.606,0,1,1,7.606,7.606,7.606,7.606,0,0,1-7.606-7.606Zm6.338,48.17V76.058a5.071,5.071,0,1,1-10.141,0V40.707L9.432,48.249A5.068,5.068,0,0,1,.749,43.02L9.987,27.65a15.225,15.225,0,0,1,13.041-7.384h4.706A15.225,15.225,0,0,1,40.774,27.65l9.238,15.37a5.068,5.068,0,0,1-8.683,5.229l-4.548-7.542V76.058a5.071,5.071,0,1,1-10.141,0V55.776Z" transform="translate(958.591 644.881)"/><path class="a" d="M17.767,7.606a7.606,7.606,0,1,1,7.606,7.606,7.606,7.606,0,0,1-7.606-7.606Zm6.338,48.17V76.058a5.071,5.071,0,1,1-10.141,0V40.707L9.432,48.249A5.068,5.068,0,0,1,.749,43.02L9.987,27.65a15.225,15.225,0,0,1,13.041-7.384h4.706A15.225,15.225,0,0,1,40.774,27.65l9.238,15.37a5.068,5.068,0,0,1-8.683,5.229l-4.548-7.542V76.058a5.071,5.071,0,1,1-10.141,0V55.776Z" transform="translate(1016.283 644.881)"/><path class="a" d="M17.767,7.606a7.606,7.606,0,1,1,7.606,7.606,7.606,7.606,0,0,1-7.606-7.606Zm6.338,48.17V76.058a5.071,5.071,0,1,1-10.141,0V40.707L9.432,48.249A5.068,5.068,0,0,1,.749,43.02L9.987,27.65a15.225,15.225,0,0,1,13.041-7.384h4.706A15.225,15.225,0,0,1,40.774,27.65l9.238,15.37a5.068,5.068,0,0,1-8.683,5.229l-4.548-7.542V76.058a5.071,5.071,0,1,1-10.141,0V55.776Z" transform="translate(1073.976 644.881)"/><path class="a" d="M17.767,7.606a7.606,7.606,0,1,1,7.606,7.606,7.606,7.606,0,0,1-7.606-7.606Zm6.338,48.17V76.058a5.071,5.071,0,1,1-10.141,0V40.707L9.432,48.249A5.068,5.068,0,0,1,.749,43.02L9.987,27.65a15.225,15.225,0,0,1,13.041-7.384h4.706A15.225,15.225,0,0,1,40.774,27.65l9.238,15.37a5.068,5.068,0,0,1-8.683,5.229l-4.548-7.542V76.058a5.071,5.071,0,1,1-10.141,0V55.776Z" transform="translate(1131.668 644.881)"/><path class="a" d="M17.767,7.606a7.606,7.606,0,1,1,7.606,7.606,7.606,7.606,0,0,1-7.606-7.606Zm6.338,48.17V76.058a5.071,5.071,0,1,1-10.141,0V40.707L9.432,48.249A5.068,5.068,0,0,1,.749,43.02L9.987,27.65a15.225,15.225,0,0,1,13.041-7.384h4.706A15.225,15.225,0,0,1,40.774,27.65l9.238,15.37a5.068,5.068,0,0,1-8.683,5.229l-4.548-7.542V76.058a5.071,5.071,0,1,1-10.141,0V55.776Z" transform="translate(1189.36 644.881)"/><path class="a" d="M17.767,7.606a7.606,7.606,0,1,1,7.606,7.606,7.606,7.606,0,0,1-7.606-7.606Zm6.338,48.17V76.058a5.071,5.071,0,1,1-10.141,0V40.707L9.432,48.249A5.068,5.068,0,0,1,.749,43.02L9.987,27.65a15.225,15.225,0,0,1,13.041-7.384h4.706A15.225,15.225,0,0,1,40.774,27.65l9.238,15.37a5.068,5.068,0,0,1-8.683,5.229l-4.548-7.542V76.058a5.071,5.071,0,1,1-10.141,0V55.776Z" transform="translate(1247.052 644.881)"/><path class="a" d="M17.767,7.606a7.606,7.606,0,1,1,7.606,7.606,7.606,7.606,0,0,1-7.606-7.606Zm6.338,48.17V76.058a5.071,5.071,0,1,1-10.141,0V40.707L9.432,48.249A5.068,5.068,0,0,1,.749,43.02L9.987,27.65a15.225,15.225,0,0,1,13.041-7.384h4.706A15.225,15.225,0,0,1,40.774,27.65l9.238,15.37a5.068,5.068,0,0,1-8.683,5.229l-4.548-7.542V76.058a5.071,5.071,0,1,1-10.141,0V55.776Z" transform="translate(1304.745 644.881)"/><path class="a" d="M17.767,7.606a7.606,7.606,0,1,1,7.606,7.606,7.606,7.606,0,0,1-7.606-7.606Zm6.338,48.17V76.058a5.071,5.071,0,1,1-10.141,0V40.707L9.432,48.249A5.068,5.068,0,0,1,.749,43.02L9.987,27.65a15.225,15.225,0,0,1,13.041-7.384h4.706A15.225,15.225,0,0,1,40.774,27.65l9.238,15.37a5.068,5.068,0,0,1-8.683,5.229l-4.548-7.542V76.058a5.071,5.071,0,1,1-10.141,0V55.776Z" transform="translate(1362.437 644.881)"/><path class="a" d="M17.767,7.606a7.606,7.606,0,1,1,7.606,7.606,7.606,7.606,0,0,1-7.606-7.606Zm6.338,48.17V76.058a5.071,5.071,0,1,1-10.141,0V40.707L9.432,48.249A5.068,5.068,0,0,1,.749,43.02L9.987,27.65a15.225,15.225,0,0,1,13.041-7.384h4.706A15.225,15.225,0,0,1,40.774,27.65l9.238,15.37a5.068,5.068,0,0,1-8.683,5.229l-4.548-7.542V76.058a5.071,5.071,0,1,1-10.141,0V55.776Z" transform="translate(1420.129 644.881)"/><path class="a" d="M17.767,7.606a7.606,7.606,0,1,1,7.606,7.606,7.606,7.606,0,0,1-7.606-7.606Zm6.338,48.17V76.058a5.071,5.071,0,1,1-10.141,0V40.707L9.432,48.249A5.068,5.068,0,0,1,.749,43.02L9.987,27.65a15.225,15.225,0,0,1,13.041-7.384h4.706A15.225,15.225,0,0,1,40.774,27.65l9.238,15.37a5.068,5.068,0,0,1-8.683,5.229l-4.548-7.542V76.058a5.071,5.071,0,1,1-10.141,0V55.776Z" transform="translate(323.976 746.881)"/><path class="a" d="M17.767,7.606a7.606,7.606,0,1,1,7.606,7.606,7.606,7.606,0,0,1-7.606-7.606Zm6.338,48.17V76.058a5.071,5.071,0,1,1-10.141,0V40.707L9.432,48.249A5.068,5.068,0,0,1,.749,43.02L9.987,27.65a15.225,15.225,0,0,1,13.041-7.384h4.706A15.225,15.225,0,0,1,40.774,27.65l9.238,15.37a5.068,5.068,0,0,1-8.683,5.229l-4.548-7.542V76.058a5.071,5.071,0,1,1-10.141,0V55.776Z" transform="translate(381.668 746.881)"/><path class="a" d="M17.767,7.606a7.606,7.606,0,1,1,7.606,7.606,7.606,7.606,0,0,1-7.606-7.606Zm6.338,48.17V76.058a5.071,5.071,0,1,1-10.141,0V40.707L9.432,48.249A5.068,5.068,0,0,1,.749,43.02L9.987,27.65a15.225,15.225,0,0,1,13.041-7.384h4.706A15.225,15.225,0,0,1,40.774,27.65l9.238,15.37a5.068,5.068,0,0,1-8.683,5.229l-4.548-7.542V76.058a5.071,5.071,0,1,1-10.141,0V55.776Z" transform="translate(439.36 746.881)"/><path class="a" d="M17.767,7.606a7.606,7.606,0,1,1,7.606,7.606,7.606,7.606,0,0,1-7.606-7.606Zm6.338,48.17V76.058a5.071,5.071,0,1,1-10.141,0V40.707L9.432,48.249A5.068,5.068,0,0,1,.749,43.02L9.987,27.65a15.225,15.225,0,0,1,13.041-7.384h4.706A15.225,15.225,0,0,1,40.774,27.65l9.238,15.37a5.068,5.068,0,0,1-8.683,5.229l-4.548-7.542V76.058a5.071,5.071,0,1,1-10.141,0V55.776Z" transform="translate(497.053 746.881)"/><path class="a" d="M17.767,7.606a7.606,7.606,0,1,1,7.606,7.606,7.606,7.606,0,0,1-7.606-7.606Zm6.338,48.17V76.058a5.071,5.071,0,1,1-10.141,0V40.707L9.432,48.249A5.068,5.068,0,0,1,.749,43.02L9.987,27.65a15.225,15.225,0,0,1,13.041-7.384h4.706A15.225,15.225,0,0,1,40.774,27.65l9.238,15.37a5.068,5.068,0,0,1-8.683,5.229l-4.548-7.542V76.058a5.071,5.071,0,1,1-10.141,0V55.776Z" transform="translate(554.745 746.881)"/><path class="a" d="M17.767,7.606a7.606,7.606,0,1,1,7.606,7.606,7.606,7.606,0,0,1-7.606-7.606Zm6.338,48.17V76.058a5.071,5.071,0,1,1-10.141,0V40.707L9.432,48.249A5.068,5.068,0,0,1,.749,43.02L9.987,27.65a15.225,15.225,0,0,1,13.041-7.384h4.706A15.225,15.225,0,0,1,40.774,27.65l9.238,15.37a5.068,5.068,0,0,1-8.683,5.229l-4.548-7.542V76.058a5.071,5.071,0,1,1-10.141,0V55.776Z" transform="translate(612.437 746.881)"/><path class="a" d="M17.767,7.606a7.606,7.606,0,1,1,7.606,7.606,7.606,7.606,0,0,1-7.606-7.606Zm6.338,48.17V76.058a5.071,5.071,0,1,1-10.141,0V40.707L9.432,48.249A5.068,5.068,0,0,1,.749,43.02L9.987,27.65a15.225,15.225,0,0,1,13.041-7.384h4.706A15.225,15.225,0,0,1,40.774,27.65l9.238,15.37a5.068,5.068,0,0,1-8.683,5.229l-4.548-7.542V76.058a5.071,5.071,0,1,1-10.141,0V55.776Z" transform="translate(670.129 746.881)"/><path class="a" d="M17.767,7.606a7.606,7.606,0,1,1,7.606,7.606,7.606,7.606,0,0,1-7.606-7.606Zm6.338,48.17V76.058a5.071,5.071,0,1,1-10.141,0V40.707L9.432,48.249A5.068,5.068,0,0,1,.749,43.02L9.987,27.65a15.225,15.225,0,0,1,13.041-7.384h4.706A15.225,15.225,0,0,1,40.774,27.65l9.238,15.37a5.068,5.068,0,0,1-8.683,5.229l-4.548-7.542V76.058a5.071,5.071,0,1,1-10.141,0V55.776Z" transform="translate(727.822 746.881)"/><path class="a" d="M17.767,7.606a7.606,7.606,0,1,1,7.606,7.606,7.606,7.606,0,0,1-7.606-7.606Zm6.338,48.17V76.058a5.071,5.071,0,1,1-10.141,0V40.707L9.432,48.249A5.068,5.068,0,0,1,.749,43.02L9.987,27.65a15.225,15.225,0,0,1,13.041-7.384h4.706A15.225,15.225,0,0,1,40.774,27.65l9.238,15.37a5.068,5.068,0,0,1-8.683,5.229l-4.548-7.542V76.058a5.071,5.071,0,1,1-10.141,0V55.776Z" transform="translate(785.514 746.881)"/><path class="a" d="M17.767,7.606a7.606,7.606,0,1,1,7.606,7.606,7.606,7.606,0,0,1-7.606-7.606Zm6.338,48.17V76.058a5.071,5.071,0,1,1-10.141,0V40.707L9.432,48.249A5.068,5.068,0,0,1,.749,43.02L9.987,27.65a15.225,15.225,0,0,1,13.041-7.384h4.706A15.225,15.225,0,0,1,40.774,27.65l9.238,15.37a5.068,5.068,0,0,1-8.683,5.229l-4.548-7.542V76.058a5.071,5.071,0,1,1-10.141,0V55.776Z" transform="translate(843.206 746.881)"/><path class="a" d="M17.767,7.606a7.606,7.606,0,1,1,7.606,7.606,7.606,7.606,0,0,1-7.606-7.606Zm6.338,48.17V76.058a5.071,5.071,0,1,1-10.141,0V40.707L9.432,48.249A5.068,5.068,0,0,1,.749,43.02L9.987,27.65a15.225,15.225,0,0,1,13.041-7.384h4.706A15.225,15.225,0,0,1,40.774,27.65l9.238,15.37a5.068,5.068,0,0,1-8.683,5.229l-4.548-7.542V76.058a5.071,5.071,0,1,1-10.141,0V55.776Z" transform="translate(900.898 746.881)"/><path class="a" d="M17.767,7.606a7.606,7.606,0,1,1,7.606,7.606,7.606,7.606,0,0,1-7.606-7.606Zm6.338,48.17V76.058a5.071,5.071,0,1,1-10.141,0V40.707L9.432,48.249A5.068,5.068,0,0,1,.749,43.02L9.987,27.65a15.225,15.225,0,0,1,13.041-7.384h4.706A15.225,15.225,0,0,1,40.774,27.65l9.238,15.37a5.068,5.068,0,0,1-8.683,5.229l-4.548-7.542V76.058a5.071,5.071,0,1,1-10.141,0V55.776Z" transform="translate(958.591 746.881)"/><path class="a" d="M17.767,7.606a7.606,7.606,0,1,1,7.606,7.606,7.606,7.606,0,0,1-7.606-7.606Zm6.338,48.17V76.058a5.071,5.071,0,1,1-10.141,0V40.707L9.432,48.249A5.068,5.068,0,0,1,.749,43.02L9.987,27.65a15.225,15.225,0,0,1,13.041-7.384h4.706A15.225,15.225,0,0,1,40.774,27.65l9.238,15.37a5.068,5.068,0,0,1-8.683,5.229l-4.548-7.542V76.058a5.071,5.071,0,1,1-10.141,0V55.776Z" transform="translate(1016.283 746.881)"/><path class="a" d="M17.767,7.606a7.606,7.606,0,1,1,7.606,7.606,7.606,7.606,0,0,1-7.606-7.606Zm6.338,48.17V76.058a5.071,5.071,0,1,1-10.141,0V40.707L9.432,48.249A5.068,5.068,0,0,1,.749,43.02L9.987,27.65a15.225,15.225,0,0,1,13.041-7.384h4.706A15.225,15.225,0,0,1,40.774,27.65l9.238,15.37a5.068,5.068,0,0,1-8.683,5.229l-4.548-7.542V76.058a5.071,5.071,0,1,1-10.141,0V55.776Z" transform="translate(1073.976 746.881)"/><path class="a" d="M17.767,7.606a7.606,7.606,0,1,1,7.606,7.606,7.606,7.606,0,0,1-7.606-7.606Zm6.338,48.17V76.058a5.071,5.071,0,1,1-10.141,0V40.707L9.432,48.249A5.068,5.068,0,0,1,.749,43.02L9.987,27.65a15.225,15.225,0,0,1,13.041-7.384h4.706A15.225,15.225,0,0,1,40.774,27.65l9.238,15.37a5.068,5.068,0,0,1-8.683,5.229l-4.548-7.542V76.058a5.071,5.071,0,1,1-10.141,0V55.776Z" transform="translate(1131.668 746.881)"/><path class="a" d="M17.767,7.606a7.606,7.606,0,1,1,7.606,7.606,7.606,7.606,0,0,1-7.606-7.606Zm6.338,48.17V76.058a5.071,5.071,0,1,1-10.141,0V40.707L9.432,48.249A5.068,5.068,0,0,1,.749,43.02L9.987,27.65a15.225,15.225,0,0,1,13.041-7.384h4.706A15.225,15.225,0,0,1,40.774,27.65l9.238,15.37a5.068,5.068,0,0,1-8.683,5.229l-4.548-7.542V76.058a5.071,5.071,0,1,1-10.141,0V55.776Z" transform="translate(1189.36 746.881)"/><path class="a" d="M17.767,7.606a7.606,7.606,0,1,1,7.606,7.606,7.606,7.606,0,0,1-7.606-7.606Zm6.338,48.17V76.058a5.071,5.071,0,1,1-10.141,0V40.707L9.432,48.249A5.068,5.068,0,0,1,.749,43.02L9.987,27.65a15.225,15.225,0,0,1,13.041-7.384h4.706A15.225,15.225,0,0,1,40.774,27.65l9.238,15.37a5.068,5.068,0,0,1-8.683,5.229l-4.548-7.542V76.058a5.071,5.071,0,1,1-10.141,0V55.776Z" transform="translate(1247.052 746.881)"/><path class="a" d="M17.767,7.606a7.606,7.606,0,1,1,7.606,7.606,7.606,7.606,0,0,1-7.606-7.606Zm6.338,48.17V76.058a5.071,5.071,0,1,1-10.141,0V40.707L9.432,48.249A5.068,5.068,0,0,1,.749,43.02L9.987,27.65a15.225,15.225,0,0,1,13.041-7.384h4.706A15.225,15.225,0,0,1,40.774,27.65l9.238,15.37a5.068,5.068,0,0,1-8.683,5.229l-4.548-7.542V76.058a5.071,5.071,0,1,1-10.141,0V55.776Z" transform="translate(1304.745 746.881)"/><path class="a" d="M17.767,7.606a7.606,7.606,0,1,1,7.606,7.606,7.606,7.606,0,0,1-7.606-7.606Zm6.338,48.17V76.058a5.071,5.071,0,1,1-10.141,0V40.707L9.432,48.249A5.068,5.068,0,0,1,.749,43.02L9.987,27.65a15.225,15.225,0,0,1,13.041-7.384h4.706A15.225,15.225,0,0,1,40.774,27.65l9.238,15.37a5.068,5.068,0,0,1-8.683,5.229l-4.548-7.542V76.058a5.071,5.071,0,1,1-10.141,0V55.776Z" transform="translate(1362.437 746.881)"/><path class="a" d="M17.767,7.606a7.606,7.606,0,1,1,7.606,7.606,7.606,7.606,0,0,1-7.606-7.606Zm6.338,48.17V76.058a5.071,5.071,0,1,1-10.141,0V40.707L9.432,48.249A5.068,5.068,0,0,1,.749,43.02L9.987,27.65a15.225,15.225,0,0,1,13.041-7.384h4.706A15.225,15.225,0,0,1,40.774,27.65l9.238,15.37a5.068,5.068,0,0,1-8.683,5.229l-4.548-7.542V76.058a5.071,5.071,0,1,1-10.141,0V55.776Z" transform="translate(1420.129 746.881)"/><path class="a" d="M17.767,7.606a7.606,7.606,0,1,1,7.606,7.606,7.606,7.606,0,0,1-7.606-7.606Zm6.338,48.17V76.058a5.071,5.071,0,1,1-10.141,0V40.707L9.432,48.249A5.068,5.068,0,0,1,.749,43.02L9.987,27.65a15.225,15.225,0,0,1,13.041-7.384h4.706A15.225,15.225,0,0,1,40.774,27.65l9.238,15.37a5.068,5.068,0,0,1-8.683,5.229l-4.548-7.542V76.058a5.071,5.071,0,1,1-10.141,0V55.776Z" transform="translate(323.976 848.881)"/><path class="a" d="M17.767,7.606a7.606,7.606,0,1,1,7.606,7.606,7.606,7.606,0,0,1-7.606-7.606Zm6.338,48.17V76.058a5.071,5.071,0,1,1-10.141,0V40.707L9.432,48.249A5.068,5.068,0,0,1,.749,43.02L9.987,27.65a15.225,15.225,0,0,1,13.041-7.384h4.706A15.225,15.225,0,0,1,40.774,27.65l9.238,15.37a5.068,5.068,0,0,1-8.683,5.229l-4.548-7.542V76.058a5.071,5.071,0,1,1-10.141,0V55.776Z" transform="translate(381.668 848.881)"/><path class="a" d="M17.767,7.606a7.606,7.606,0,1,1,7.606,7.606,7.606,7.606,0,0,1-7.606-7.606Zm6.338,48.17V76.058a5.071,5.071,0,1,1-10.141,0V40.707L9.432,48.249A5.068,5.068,0,0,1,.749,43.02L9.987,27.65a15.225,15.225,0,0,1,13.041-7.384h4.706A15.225,15.225,0,0,1,40.774,27.65l9.238,15.37a5.068,5.068,0,0,1-8.683,5.229l-4.548-7.542V76.058a5.071,5.071,0,1,1-10.141,0V55.776Z" transform="translate(439.36 848.881)"/><path class="a" d="M17.767,7.606a7.606,7.606,0,1,1,7.606,7.606,7.606,7.606,0,0,1-7.606-7.606Zm6.338,48.17V76.058a5.071,5.071,0,1,1-10.141,0V40.707L9.432,48.249A5.068,5.068,0,0,1,.749,43.02L9.987,27.65a15.225,15.225,0,0,1,13.041-7.384h4.706A15.225,15.225,0,0,1,40.774,27.65l9.238,15.37a5.068,5.068,0,0,1-8.683,5.229l-4.548-7.542V76.058a5.071,5.071,0,1,1-10.141,0V55.776Z" transform="translate(497.053 848.881)"/><path class="a" d="M17.767,7.606a7.606,7.606,0,1,1,7.606,7.606,7.606,7.606,0,0,1-7.606-7.606Zm6.338,48.17V76.058a5.071,5.071,0,1,1-10.141,0V40.707L9.432,48.249A5.068,5.068,0,0,1,.749,43.02L9.987,27.65a15.225,15.225,0,0,1,13.041-7.384h4.706A15.225,15.225,0,0,1,40.774,27.65l9.238,15.37a5.068,5.068,0,0,1-8.683,5.229l-4.548-7.542V76.058a5.071,5.071,0,1,1-10.141,0V55.776Z" transform="translate(554.745 848.881)"/><path class="a" d="M17.767,7.606a7.606,7.606,0,1,1,7.606,7.606,7.606,7.606,0,0,1-7.606-7.606Zm6.338,48.17V76.058a5.071,5.071,0,1,1-10.141,0V40.707L9.432,48.249A5.068,5.068,0,0,1,.749,43.02L9.987,27.65a15.225,15.225,0,0,1,13.041-7.384h4.706A15.225,15.225,0,0,1,40.774,27.65l9.238,15.37a5.068,5.068,0,0,1-8.683,5.229l-4.548-7.542V76.058a5.071,5.071,0,1,1-10.141,0V55.776Z" transform="translate(612.437 848.881)"/><path class="a" d="M17.767,7.606a7.606,7.606,0,1,1,7.606,7.606,7.606,7.606,0,0,1-7.606-7.606Zm6.338,48.17V76.058a5.071,5.071,0,1,1-10.141,0V40.707L9.432,48.249A5.068,5.068,0,0,1,.749,43.02L9.987,27.65a15.225,15.225,0,0,1,13.041-7.384h4.706A15.225,15.225,0,0,1,40.774,27.65l9.238,15.37a5.068,5.068,0,0,1-8.683,5.229l-4.548-7.542V76.058a5.071,5.071,0,1,1-10.141,0V55.776Z" transform="translate(670.129 848.881)"/><path class="a" d="M17.767,7.606a7.606,7.606,0,1,1,7.606,7.606,7.606,7.606,0,0,1-7.606-7.606Zm6.338,48.17V76.058a5.071,5.071,0,1,1-10.141,0V40.707L9.432,48.249A5.068,5.068,0,0,1,.749,43.02L9.987,27.65a15.225,15.225,0,0,1,13.041-7.384h4.706A15.225,15.225,0,0,1,40.774,27.65l9.238,15.37a5.068,5.068,0,0,1-8.683,5.229l-4.548-7.542V76.058a5.071,5.071,0,1,1-10.141,0V55.776Z" transform="translate(727.822 848.881)"/><path class="a" d="M17.767,7.606a7.606,7.606,0,1,1,7.606,7.606,7.606,7.606,0,0,1-7.606-7.606Zm6.338,48.17V76.058a5.071,5.071,0,1,1-10.141,0V40.707L9.432,48.249A5.068,5.068,0,0,1,.749,43.02L9.987,27.65a15.225,15.225,0,0,1,13.041-7.384h4.706A15.225,15.225,0,0,1,40.774,27.65l9.238,15.37a5.068,5.068,0,0,1-8.683,5.229l-4.548-7.542V76.058a5.071,5.071,0,1,1-10.141,0V55.776Z" transform="translate(785.514 848.881)"/><path class="a" d="M17.767,7.606a7.606,7.606,0,1,1,7.606,7.606,7.606,7.606,0,0,1-7.606-7.606Zm6.338,48.17V76.058a5.071,5.071,0,1,1-10.141,0V40.707L9.432,48.249A5.068,5.068,0,0,1,.749,43.02L9.987,27.65a15.225,15.225,0,0,1,13.041-7.384h4.706A15.225,15.225,0,0,1,40.774,27.65l9.238,15.37a5.068,5.068,0,0,1-8.683,5.229l-4.548-7.542V76.058a5.071,5.071,0,1,1-10.141,0V55.776Z" transform="translate(843.206 848.881)"/><path class="a" d="M17.767,7.606a7.606,7.606,0,1,1,7.606,7.606,7.606,7.606,0,0,1-7.606-7.606Zm6.338,48.17V76.058a5.071,5.071,0,1,1-10.141,0V40.707L9.432,48.249A5.068,5.068,0,0,1,.749,43.02L9.987,27.65a15.225,15.225,0,0,1,13.041-7.384h4.706A15.225,15.225,0,0,1,40.774,27.65l9.238,15.37a5.068,5.068,0,0,1-8.683,5.229l-4.548-7.542V76.058a5.071,5.071,0,1,1-10.141,0V55.776Z" transform="translate(900.898 848.881)"/><path class="a" d="M17.767,7.606a7.606,7.606,0,1,1,7.606,7.606,7.606,7.606,0,0,1-7.606-7.606Zm6.338,48.17V76.058a5.071,5.071,0,1,1-10.141,0V40.707L9.432,48.249A5.068,5.068,0,0,1,.749,43.02L9.987,27.65a15.225,15.225,0,0,1,13.041-7.384h4.706A15.225,15.225,0,0,1,40.774,27.65l9.238,15.37a5.068,5.068,0,0,1-8.683,5.229l-4.548-7.542V76.058a5.071,5.071,0,1,1-10.141,0V55.776Z" transform="translate(958.591 848.881)"/><path class="b" d="M17.767,7.606a7.606,7.606,0,1,1,7.606,7.606,7.606,7.606,0,0,1-7.606-7.606Zm6.338,48.17V76.058a5.071,5.071,0,1,1-10.141,0V40.707L9.432,48.249A5.068,5.068,0,0,1,.749,43.02L9.987,27.65a15.225,15.225,0,0,1,13.041-7.384h4.706A15.225,15.225,0,0,1,40.774,27.65l9.238,15.37a5.068,5.068,0,0,1-8.683,5.229l-4.548-7.542V76.058a5.071,5.071,0,1,1-10.141,0V55.776Z" transform="translate(1016.283 848.881)"/><path class="b" d="M17.767,7.606a7.606,7.606,0,1,1,7.606,7.606,7.606,7.606,0,0,1-7.606-7.606Zm6.338,48.17V76.058a5.071,5.071,0,1,1-10.141,0V40.707L9.432,48.249A5.068,5.068,0,0,1,.749,43.02L9.987,27.65a15.225,15.225,0,0,1,13.041-7.384h4.706A15.225,15.225,0,0,1,40.774,27.65l9.238,15.37a5.068,5.068,0,0,1-8.683,5.229l-4.548-7.542V76.058a5.071,5.071,0,1,1-10.141,0V55.776Z" transform="translate(1073.976 848.881)"/><path class="b" d="M17.767,7.606a7.606,7.606,0,1,1,7.606,7.606,7.606,7.606,0,0,1-7.606-7.606Zm6.338,48.17V76.058a5.071,5.071,0,1,1-10.141,0V40.707L9.432,48.249A5.068,5.068,0,0,1,.749,43.02L9.987,27.65a15.225,15.225,0,0,1,13.041-7.384h4.706A15.225,15.225,0,0,1,40.774,27.65l9.238,15.37a5.068,5.068,0,0,1-8.683,5.229l-4.548-7.542V76.058a5.071,5.071,0,1,1-10.141,0V55.776Z" transform="translate(1131.668 848.881)"/><path class="b" d="M17.767,7.606a7.606,7.606,0,1,1,7.606,7.606,7.606,7.606,0,0,1-7.606-7.606Zm6.338,48.17V76.058a5.071,5.071,0,1,1-10.141,0V40.707L9.432,48.249A5.068,5.068,0,0,1,.749,43.02L9.987,27.65a15.225,15.225,0,0,1,13.041-7.384h4.706A15.225,15.225,0,0,1,40.774,27.65l9.238,15.37a5.068,5.068,0,0,1-8.683,5.229l-4.548-7.542V76.058a5.071,5.071,0,1,1-10.141,0V55.776Z" transform="translate(1189.36 848.881)"/><path class="b" d="M17.767,7.606a7.606,7.606,0,1,1,7.606,7.606,7.606,7.606,0,0,1-7.606-7.606Zm6.338,48.17V76.058a5.071,5.071,0,1,1-10.141,0V40.707L9.432,48.249A5.068,5.068,0,0,1,.749,43.02L9.987,27.65a15.225,15.225,0,0,1,13.041-7.384h4.706A15.225,15.225,0,0,1,40.774,27.65l9.238,15.37a5.068,5.068,0,0,1-8.683,5.229l-4.548-7.542V76.058a5.071,5.071,0,1,1-10.141,0V55.776Z" transform="translate(1247.052 848.881)"/><path class="b" d="M17.767,7.606a7.606,7.606,0,1,1,7.606,7.606,7.606,7.606,0,0,1-7.606-7.606Zm6.338,48.17V76.058a5.071,5.071,0,1,1-10.141,0V40.707L9.432,48.249A5.068,5.068,0,0,1,.749,43.02L9.987,27.65a15.225,15.225,0,0,1,13.041-7.384h4.706A15.225,15.225,0,0,1,40.774,27.65l9.238,15.37a5.068,5.068,0,0,1-8.683,5.229l-4.548-7.542V76.058a5.071,5.071,0,1,1-10.141,0V55.776Z" transform="translate(1304.745 848.881)"/><path class="b" d="M17.767,7.606a7.606,7.606,0,1,1,7.606,7.606,7.606,7.606,0,0,1-7.606-7.606Zm6.338,48.17V76.058a5.071,5.071,0,1,1-10.141,0V40.707L9.432,48.249A5.068,5.068,0,0,1,.749,43.02L9.987,27.65a15.225,15.225,0,0,1,13.041-7.384h4.706A15.225,15.225,0,0,1,40.774,27.65l9.238,15.37a5.068,5.068,0,0,1-8.683,5.229l-4.548-7.542V76.058a5.071,5.071,0,1,1-10.141,0V55.776Z" transform="translate(1362.437 848.881)"/><path class="b" d="M17.767,7.606a7.606,7.606,0,1,1,7.606,7.606,7.606,7.606,0,0,1-7.606-7.606Zm6.338,48.17V76.058a5.071,5.071,0,1,1-10.141,0V40.707L9.432,48.249A5.068,5.068,0,0,1,.749,43.02L9.987,27.65a15.225,15.225,0,0,1,13.041-7.384h4.706A15.225,15.225,0,0,1,40.774,27.65l9.238,15.37a5.068,5.068,0,0,1-8.683,5.229l-4.548-7.542V76.058a5.071,5.071,0,1,1-10.141,0V55.776Z" transform="translate(1420.129 848.881)"/><path class="b" d="M17.767,7.606a7.606,7.606,0,1,1,7.606,7.606,7.606,7.606,0,0,1-7.606-7.606Zm6.338,48.17V76.058a5.071,5.071,0,1,1-10.141,0V40.707L9.432,48.249A5.068,5.068,0,0,1,.749,43.02L9.987,27.65a15.225,15.225,0,0,1,13.041-7.384h4.706A15.225,15.225,0,0,1,40.774,27.65l9.238,15.37a5.068,5.068,0,0,1-8.683,5.229l-4.548-7.542V76.058a5.071,5.071,0,1,1-10.141,0V55.776Z" transform="translate(323.976 950.881)"/><path class="b" d="M17.767,7.606a7.606,7.606,0,1,1,7.606,7.606,7.606,7.606,0,0,1-7.606-7.606Zm6.338,48.17V76.058a5.071,5.071,0,1,1-10.141,0V40.707L9.432,48.249A5.068,5.068,0,0,1,.749,43.02L9.987,27.65a15.225,15.225,0,0,1,13.041-7.384h4.706A15.225,15.225,0,0,1,40.774,27.65l9.238,15.37a5.068,5.068,0,0,1-8.683,5.229l-4.548-7.542V76.058a5.071,5.071,0,1,1-10.141,0V55.776Z" transform="translate(381.668 950.881)"/><path class="b" d="M17.767,7.606a7.606,7.606,0,1,1,7.606,7.606,7.606,7.606,0,0,1-7.606-7.606Zm6.338,48.17V76.058a5.071,5.071,0,1,1-10.141,0V40.707L9.432,48.249A5.068,5.068,0,0,1,.749,43.02L9.987,27.65a15.225,15.225,0,0,1,13.041-7.384h4.706A15.225,15.225,0,0,1,40.774,27.65l9.238,15.37a5.068,5.068,0,0,1-8.683,5.229l-4.548-7.542V76.058a5.071,5.071,0,1,1-10.141,0V55.776Z" transform="translate(439.36 950.881)"/><path class="b" d="M17.767,7.606a7.606,7.606,0,1,1,7.606,7.606,7.606,7.606,0,0,1-7.606-7.606Zm6.338,48.17V76.058a5.071,5.071,0,1,1-10.141,0V40.707L9.432,48.249A5.068,5.068,0,0,1,.749,43.02L9.987,27.65a15.225,15.225,0,0,1,13.041-7.384h4.706A15.225,15.225,0,0,1,40.774,27.65l9.238,15.37a5.068,5.068,0,0,1-8.683,5.229l-4.548-7.542V76.058a5.071,5.071,0,1,1-10.141,0V55.776Z" transform="translate(497.053 950.881)"/><path class="b" d="M17.767,7.606a7.606,7.606,0,1,1,7.606,7.606,7.606,7.606,0,0,1-7.606-7.606Zm6.338,48.17V76.058a5.071,5.071,0,1,1-10.141,0V40.707L9.432,48.249A5.068,5.068,0,0,1,.749,43.02L9.987,27.65a15.225,15.225,0,0,1,13.041-7.384h4.706A15.225,15.225,0,0,1,40.774,27.65l9.238,15.37a5.068,5.068,0,0,1-8.683,5.229l-4.548-7.542V76.058a5.071,5.071,0,1,1-10.141,0V55.776Z" transform="translate(554.745 950.881)"/><path class="b" d="M17.767,7.606a7.606,7.606,0,1,1,7.606,7.606,7.606,7.606,0,0,1-7.606-7.606Zm6.338,48.17V76.058a5.071,5.071,0,1,1-10.141,0V40.707L9.432,48.249A5.068,5.068,0,0,1,.749,43.02L9.987,27.65a15.225,15.225,0,0,1,13.041-7.384h4.706A15.225,15.225,0,0,1,40.774,27.65l9.238,15.37a5.068,5.068,0,0,1-8.683,5.229l-4.548-7.542V76.058a5.071,5.071,0,1,1-10.141,0V55.776Z" transform="translate(612.437 950.881)"/><path class="b" d="M17.767,7.606a7.606,7.606,0,1,1,7.606,7.606,7.606,7.606,0,0,1-7.606-7.606Zm6.338,48.17V76.058a5.071,5.071,0,1,1-10.141,0V40.707L9.432,48.249A5.068,5.068,0,0,1,.749,43.02L9.987,27.65a15.225,15.225,0,0,1,13.041-7.384h4.706A15.225,15.225,0,0,1,40.774,27.65l9.238,15.37a5.068,5.068,0,0,1-8.683,5.229l-4.548-7.542V76.058a5.071,5.071,0,1,1-10.141,0V55.776Z" transform="translate(670.129 950.881)"/><path class="b" d="M17.767,7.606a7.606,7.606,0,1,1,7.606,7.606,7.606,7.606,0,0,1-7.606-7.606Zm6.338,48.17V76.058a5.071,5.071,0,1,1-10.141,0V40.707L9.432,48.249A5.068,5.068,0,0,1,.749,43.02L9.987,27.65a15.225,15.225,0,0,1,13.041-7.384h4.706A15.225,15.225,0,0,1,40.774,27.65l9.238,15.37a5.068,5.068,0,0,1-8.683,5.229l-4.548-7.542V76.058a5.071,5.071,0,1,1-10.141,0V55.776Z" transform="translate(727.822 950.881)"/><path class="b" d="M17.767,7.606a7.606,7.606,0,1,1,7.606,7.606,7.606,7.606,0,0,1-7.606-7.606Zm6.338,48.17V76.058a5.071,5.071,0,1,1-10.141,0V40.707L9.432,48.249A5.068,5.068,0,0,1,.749,43.02L9.987,27.65a15.225,15.225,0,0,1,13.041-7.384h4.706A15.225,15.225,0,0,1,40.774,27.65l9.238,15.37a5.068,5.068,0,0,1-8.683,5.229l-4.548-7.542V76.058a5.071,5.071,0,1,1-10.141,0V55.776Z" transform="translate(785.514 950.881)"/><path class="b" d="M17.767,7.606a7.606,7.606,0,1,1,7.606,7.606,7.606,7.606,0,0,1-7.606-7.606Zm6.338,48.17V76.058a5.071,5.071,0,1,1-10.141,0V40.707L9.432,48.249A5.068,5.068,0,0,1,.749,43.02L9.987,27.65a15.225,15.225,0,0,1,13.041-7.384h4.706A15.225,15.225,0,0,1,40.774,27.65l9.238,15.37a5.068,5.068,0,0,1-8.683,5.229l-4.548-7.542V76.058a5.071,5.071,0,1,1-10.141,0V55.776Z" transform="translate(843.206 950.881)"/><path class="b" d="M17.767,7.606a7.606,7.606,0,1,1,7.606,7.606,7.606,7.606,0,0,1-7.606-7.606Zm6.338,48.17V76.058a5.071,5.071,0,1,1-10.141,0V40.707L9.432,48.249A5.068,5.068,0,0,1,.749,43.02L9.987,27.65a15.225,15.225,0,0,1,13.041-7.384h4.706A15.225,15.225,0,0,1,40.774,27.65l9.238,15.37a5.068,5.068,0,0,1-8.683,5.229l-4.548-7.542V76.058a5.071,5.071,0,1,1-10.141,0V55.776Z" transform="translate(900.898 950.881)"/><path class="b" d="M17.767,7.606a7.606,7.606,0,1,1,7.606,7.606,7.606,7.606,0,0,1-7.606-7.606Zm6.338,48.17V76.058a5.071,5.071,0,1,1-10.141,0V40.707L9.432,48.249A5.068,5.068,0,0,1,.749,43.02L9.987,27.65a15.225,15.225,0,0,1,13.041-7.384h4.706A15.225,15.225,0,0,1,40.774,27.65l9.238,15.37a5.068,5.068,0,0,1-8.683,5.229l-4.548-7.542V76.058a5.071,5.071,0,1,1-10.141,0V55.776Z" transform="translate(958.591 950.881)"/><path class="b" d="M17.767,7.606a7.606,7.606,0,1,1,7.606,7.606,7.606,7.606,0,0,1-7.606-7.606Zm6.338,48.17V76.058a5.071,5.071,0,1,1-10.141,0V40.707L9.432,48.249A5.068,5.068,0,0,1,.749,43.02L9.987,27.65a15.225,15.225,0,0,1,13.041-7.384h4.706A15.225,15.225,0,0,1,40.774,27.65l9.238,15.37a5.068,5.068,0,0,1-8.683,5.229l-4.548-7.542V76.058a5.071,5.071,0,1,1-10.141,0V55.776Z" transform="translate(1016.283 950.881)"/><path class="b" d="M17.767,7.606a7.606,7.606,0,1,1,7.606,7.606,7.606,7.606,0,0,1-7.606-7.606Zm6.338,48.17V76.058a5.071,5.071,0,1,1-10.141,0V40.707L9.432,48.249A5.068,5.068,0,0,1,.749,43.02L9.987,27.65a15.225,15.225,0,0,1,13.041-7.384h4.706A15.225,15.225,0,0,1,40.774,27.65l9.238,15.37a5.068,5.068,0,0,1-8.683,5.229l-4.548-7.542V76.058a5.071,5.071,0,1,1-10.141,0V55.776Z" transform="translate(1073.976 950.881)"/><path class="b" d="M17.767,7.606a7.606,7.606,0,1,1,7.606,7.606,7.606,7.606,0,0,1-7.606-7.606Zm6.338,48.17V76.058a5.071,5.071,0,1,1-10.141,0V40.707L9.432,48.249A5.068,5.068,0,0,1,.749,43.02L9.987,27.65a15.225,15.225,0,0,1,13.041-7.384h4.706A15.225,15.225,0,0,1,40.774,27.65l9.238,15.37a5.068,5.068,0,0,1-8.683,5.229l-4.548-7.542V76.058a5.071,5.071,0,1,1-10.141,0V55.776Z" transform="translate(1131.668 950.881)"/><path class="b" d="M17.767,7.606a7.606,7.606,0,1,1,7.606,7.606,7.606,7.606,0,0,1-7.606-7.606Zm6.338,48.17V76.058a5.071,5.071,0,1,1-10.141,0V40.707L9.432,48.249A5.068,5.068,0,0,1,.749,43.02L9.987,27.65a15.225,15.225,0,0,1,13.041-7.384h4.706A15.225,15.225,0,0,1,40.774,27.65l9.238,15.37a5.068,5.068,0,0,1-8.683,5.229l-4.548-7.542V76.058a5.071,5.071,0,1,1-10.141,0V55.776Z" transform="translate(1189.36 950.881)"/><path class="b" d="M17.767,7.606a7.606,7.606,0,1,1,7.606,7.606,7.606,7.606,0,0,1-7.606-7.606Zm6.338,48.17V76.058a5.071,5.071,0,1,1-10.141,0V40.707L9.432,48.249A5.068,5.068,0,0,1,.749,43.02L9.987,27.65a15.225,15.225,0,0,1,13.041-7.384h4.706A15.225,15.225,0,0,1,40.774,27.65l9.238,15.37a5.068,5.068,0,0,1-8.683,5.229l-4.548-7.542V76.058a5.071,5.071,0,1,1-10.141,0V55.776Z" transform="translate(1247.052 950.881)"/><path class="b" d="M17.767,7.606a7.606,7.606,0,1,1,7.606,7.606,7.606,7.606,0,0,1-7.606-7.606Zm6.338,48.17V76.058a5.071,5.071,0,1,1-10.141,0V40.707L9.432,48.249A5.068,5.068,0,0,1,.749,43.02L9.987,27.65a15.225,15.225,0,0,1,13.041-7.384h4.706A15.225,15.225,0,0,1,40.774,27.65l9.238,15.37a5.068,5.068,0,0,1-8.683,5.229l-4.548-7.542V76.058a5.071,5.071,0,1,1-10.141,0V55.776Z" transform="translate(1304.745 950.881)"/><path class="b" d="M17.767,7.606a7.606,7.606,0,1,1,7.606,7.606,7.606,7.606,0,0,1-7.606-7.606Zm6.338,48.17V76.058a5.071,5.071,0,1,1-10.141,0V40.707L9.432,48.249A5.068,5.068,0,0,1,.749,43.02L9.987,27.65a15.225,15.225,0,0,1,13.041-7.384h4.706A15.225,15.225,0,0,1,40.774,27.65l9.238,15.37a5.068,5.068,0,0,1-8.683,5.229l-4.548-7.542V76.058a5.071,5.071,0,1,1-10.141,0V55.776Z" transform="translate(1362.437 950.881)"/><path class="b" d="M17.767,7.606a7.606,7.606,0,1,1,7.606,7.606,7.606,7.606,0,0,1-7.606-7.606Zm6.338,48.17V76.058a5.071,5.071,0,1,1-10.141,0V40.707L9.432,48.249A5.068,5.068,0,0,1,.749,43.02L9.987,27.65a15.225,15.225,0,0,1,13.041-7.384h4.706A15.225,15.225,0,0,1,40.774,27.65l9.238,15.37a5.068,5.068,0,0,1-8.683,5.229l-4.548-7.542V76.058a5.071,5.071,0,1,1-10.141,0V55.776Z" transform="translate(1420.129 950.881)"/><path class="a" d="M17.767,7.606a7.606,7.606,0,1,1,7.606,7.606,7.606,7.606,0,0,1-7.606-7.606Zm6.338,48.17V76.058a5.071,5.071,0,1,1-10.141,0V40.707L9.432,48.249A5.068,5.068,0,0,1,.749,43.02L9.987,27.65a15.225,15.225,0,0,1,13.041-7.384h4.706A15.225,15.225,0,0,1,40.774,27.65l9.238,15.37a5.068,5.068,0,0,1-8.683,5.229l-4.548-7.542V76.058a5.071,5.071,0,1,1-10.141,0V55.776Z" transform="translate(323.976 542.881)"/><path class="a" d="M17.767,7.606a7.606,7.606,0,1,1,7.606,7.606,7.606,7.606,0,0,1-7.606-7.606Zm6.338,48.17V76.058a5.071,5.071,0,1,1-10.141,0V40.707L9.432,48.249A5.068,5.068,0,0,1,.749,43.02L9.987,27.65a15.225,15.225,0,0,1,13.041-7.384h4.706A15.225,15.225,0,0,1,40.774,27.65l9.238,15.37a5.068,5.068,0,0,1-8.683,5.229l-4.548-7.542V76.058a5.071,5.071,0,1,1-10.141,0V55.776Z" transform="translate(381.668 542.881)"/><path class="a" d="M17.767,7.606a7.606,7.606,0,1,1,7.606,7.606,7.606,7.606,0,0,1-7.606-7.606Zm6.338,48.17V76.058a5.071,5.071,0,1,1-10.141,0V40.707L9.432,48.249A5.068,5.068,0,0,1,.749,43.02L9.987,27.65a15.225,15.225,0,0,1,13.041-7.384h4.706A15.225,15.225,0,0,1,40.774,27.65l9.238,15.37a5.068,5.068,0,0,1-8.683,5.229l-4.548-7.542V76.058a5.071,5.071,0,1,1-10.141,0V55.776Z" transform="translate(439.36 542.881)"/><path class="a" d="M17.767,7.606a7.606,7.606,0,1,1,7.606,7.606,7.606,7.606,0,0,1-7.606-7.606Zm6.338,48.17V76.058a5.071,5.071,0,1,1-10.141,0V40.707L9.432,48.249A5.068,5.068,0,0,1,.749,43.02L9.987,27.65a15.225,15.225,0,0,1,13.041-7.384h4.706A15.225,15.225,0,0,1,40.774,27.65l9.238,15.37a5.068,5.068,0,0,1-8.683,5.229l-4.548-7.542V76.058a5.071,5.071,0,1,1-10.141,0V55.776Z" transform="translate(497.053 542.881)"/><path class="a" d="M17.767,7.606a7.606,7.606,0,1,1,7.606,7.606,7.606,7.606,0,0,1-7.606-7.606Zm6.338,48.17V76.058a5.071,5.071,0,1,1-10.141,0V40.707L9.432,48.249A5.068,5.068,0,0,1,.749,43.02L9.987,27.65a15.225,15.225,0,0,1,13.041-7.384h4.706A15.225,15.225,0,0,1,40.774,27.65l9.238,15.37a5.068,5.068,0,0,1-8.683,5.229l-4.548-7.542V76.058a5.071,5.071,0,1,1-10.141,0V55.776Z" transform="translate(554.745 542.881)"/><path class="a" d="M17.767,7.606a7.606,7.606,0,1,1,7.606,7.606,7.606,7.606,0,0,1-7.606-7.606Zm6.338,48.17V76.058a5.071,5.071,0,1,1-10.141,0V40.707L9.432,48.249A5.068,5.068,0,0,1,.749,43.02L9.987,27.65a15.225,15.225,0,0,1,13.041-7.384h4.706A15.225,15.225,0,0,1,40.774,27.65l9.238,15.37a5.068,5.068,0,0,1-8.683,5.229l-4.548-7.542V76.058a5.071,5.071,0,1,1-10.141,0V55.776Z" transform="translate(612.437 542.881)"/><path class="a" d="M17.767,7.606a7.606,7.606,0,1,1,7.606,7.606,7.606,7.606,0,0,1-7.606-7.606Zm6.338,48.17V76.058a5.071,5.071,0,1,1-10.141,0V40.707L9.432,48.249A5.068,5.068,0,0,1,.749,43.02L9.987,27.65a15.225,15.225,0,0,1,13.041-7.384h4.706A15.225,15.225,0,0,1,40.774,27.65l9.238,15.37a5.068,5.068,0,0,1-8.683,5.229l-4.548-7.542V76.058a5.071,5.071,0,1,1-10.141,0V55.776Z" transform="translate(670.129 542.881)"/><path class="a" d="M17.767,7.606a7.606,7.606,0,1,1,7.606,7.606,7.606,7.606,0,0,1-7.606-7.606Zm6.338,48.17V76.058a5.071,5.071,0,1,1-10.141,0V40.707L9.432,48.249A5.068,5.068,0,0,1,.749,43.02L9.987,27.65a15.225,15.225,0,0,1,13.041-7.384h4.706A15.225,15.225,0,0,1,40.774,27.65l9.238,15.37a5.068,5.068,0,0,1-8.683,5.229l-4.548-7.542V76.058a5.071,5.071,0,1,1-10.141,0V55.776Z" transform="translate(727.822 542.881)"/><path class="a" d="M17.767,7.606a7.606,7.606,0,1,1,7.606,7.606,7.606,7.606,0,0,1-7.606-7.606Zm6.338,48.17V76.058a5.071,5.071,0,1,1-10.141,0V40.707L9.432,48.249A5.068,5.068,0,0,1,.749,43.02L9.987,27.65a15.225,15.225,0,0,1,13.041-7.384h4.706A15.225,15.225,0,0,1,40.774,27.65l9.238,15.37a5.068,5.068,0,0,1-8.683,5.229l-4.548-7.542V76.058a5.071,5.071,0,1,1-10.141,0V55.776Z" transform="translate(785.514 542.881)"/><path class="a" d="M17.767,7.606a7.606,7.606,0,1,1,7.606,7.606,7.606,7.606,0,0,1-7.606-7.606Zm6.338,48.17V76.058a5.071,5.071,0,1,1-10.141,0V40.707L9.432,48.249A5.068,5.068,0,0,1,.749,43.02L9.987,27.65a15.225,15.225,0,0,1,13.041-7.384h4.706A15.225,15.225,0,0,1,40.774,27.65l9.238,15.37a5.068,5.068,0,0,1-8.683,5.229l-4.548-7.542V76.058a5.071,5.071,0,1,1-10.141,0V55.776Z" transform="translate(843.206 542.881)"/><path class="a" d="M17.767,7.606a7.606,7.606,0,1,1,7.606,7.606,7.606,7.606,0,0,1-7.606-7.606Zm6.338,48.17V76.058a5.071,5.071,0,1,1-10.141,0V40.707L9.432,48.249A5.068,5.068,0,0,1,.749,43.02L9.987,27.65a15.225,15.225,0,0,1,13.041-7.384h4.706A15.225,15.225,0,0,1,40.774,27.65l9.238,15.37a5.068,5.068,0,0,1-8.683,5.229l-4.548-7.542V76.058a5.071,5.071,0,1,1-10.141,0V55.776Z" transform="translate(900.898 542.881)"/><path class="a" d="M17.767,7.606a7.606,7.606,0,1,1,7.606,7.606,7.606,7.606,0,0,1-7.606-7.606Zm6.338,48.17V76.058a5.071,5.071,0,1,1-10.141,0V40.707L9.432,48.249A5.068,5.068,0,0,1,.749,43.02L9.987,27.65a15.225,15.225,0,0,1,13.041-7.384h4.706A15.225,15.225,0,0,1,40.774,27.65l9.238,15.37a5.068,5.068,0,0,1-8.683,5.229l-4.548-7.542V76.058a5.071,5.071,0,1,1-10.141,0V55.776Z" transform="translate(958.591 542.881)"/><path class="a" d="M17.767,7.606a7.606,7.606,0,1,1,7.606,7.606,7.606,7.606,0,0,1-7.606-7.606Zm6.338,48.17V76.058a5.071,5.071,0,1,1-10.141,0V40.707L9.432,48.249A5.068,5.068,0,0,1,.749,43.02L9.987,27.65a15.225,15.225,0,0,1,13.041-7.384h4.706A15.225,15.225,0,0,1,40.774,27.65l9.238,15.37a5.068,5.068,0,0,1-8.683,5.229l-4.548-7.542V76.058a5.071,5.071,0,1,1-10.141,0V55.776Z" transform="translate(1016.283 542.881)"/><path class="a" d="M17.767,7.606a7.606,7.606,0,1,1,7.606,7.606,7.606,7.606,0,0,1-7.606-7.606Zm6.338,48.17V76.058a5.071,5.071,0,1,1-10.141,0V40.707L9.432,48.249A5.068,5.068,0,0,1,.749,43.02L9.987,27.65a15.225,15.225,0,0,1,13.041-7.384h4.706A15.225,15.225,0,0,1,40.774,27.65l9.238,15.37a5.068,5.068,0,0,1-8.683,5.229l-4.548-7.542V76.058a5.071,5.071,0,1,1-10.141,0V55.776Z" transform="translate(1073.976 542.881)"/><path class="a" d="M17.767,7.606a7.606,7.606,0,1,1,7.606,7.606,7.606,7.606,0,0,1-7.606-7.606Zm6.338,48.17V76.058a5.071,5.071,0,1,1-10.141,0V40.707L9.432,48.249A5.068,5.068,0,0,1,.749,43.02L9.987,27.65a15.225,15.225,0,0,1,13.041-7.384h4.706A15.225,15.225,0,0,1,40.774,27.65l9.238,15.37a5.068,5.068,0,0,1-8.683,5.229l-4.548-7.542V76.058a5.071,5.071,0,1,1-10.141,0V55.776Z" transform="translate(1131.668 542.881)"/><path class="a" d="M17.767,7.606a7.606,7.606,0,1,1,7.606,7.606,7.606,7.606,0,0,1-7.606-7.606Zm6.338,48.17V76.058a5.071,5.071,0,1,1-10.141,0V40.707L9.432,48.249A5.068,5.068,0,0,1,.749,43.02L9.987,27.65a15.225,15.225,0,0,1,13.041-7.384h4.706A15.225,15.225,0,0,1,40.774,27.65l9.238,15.37a5.068,5.068,0,0,1-8.683,5.229l-4.548-7.542V76.058a5.071,5.071,0,1,1-10.141,0V55.776Z" transform="translate(1189.36 542.881)"/><path class="a" d="M17.767,7.606a7.606,7.606,0,1,1,7.606,7.606,7.606,7.606,0,0,1-7.606-7.606Zm6.338,48.17V76.058a5.071,5.071,0,1,1-10.141,0V40.707L9.432,48.249A5.068,5.068,0,0,1,.749,43.02L9.987,27.65a15.225,15.225,0,0,1,13.041-7.384h4.706A15.225,15.225,0,0,1,40.774,27.65l9.238,15.37a5.068,5.068,0,0,1-8.683,5.229l-4.548-7.542V76.058a5.071,5.071,0,1,1-10.141,0V55.776Z" transform="translate(1247.052 542.881)"/><path class="a" d="M17.767,7.606a7.606,7.606,0,1,1,7.606,7.606,7.606,7.606,0,0,1-7.606-7.606Zm6.338,48.17V76.058a5.071,5.071,0,1,1-10.141,0V40.707L9.432,48.249A5.068,5.068,0,0,1,.749,43.02L9.987,27.65a15.225,15.225,0,0,1,13.041-7.384h4.706A15.225,15.225,0,0,1,40.774,27.65l9.238,15.37a5.068,5.068,0,0,1-8.683,5.229l-4.548-7.542V76.058a5.071,5.071,0,1,1-10.141,0V55.776Z" transform="translate(1304.745 542.881)"/><path class="a" d="M17.767,7.606a7.606,7.606,0,1,1,7.606,7.606,7.606,7.606,0,0,1-7.606-7.606Zm6.338,48.17V76.058a5.071,5.071,0,1,1-10.141,0V40.707L9.432,48.249A5.068,5.068,0,0,1,.749,43.02L9.987,27.65a15.225,15.225,0,0,1,13.041-7.384h4.706A15.225,15.225,0,0,1,40.774,27.65l9.238,15.37a5.068,5.068,0,0,1-8.683,5.229l-4.548-7.542V76.058a5.071,5.071,0,1,1-10.141,0V55.776Z" transform="translate(1362.437 542.881)"/><path class="a" d="M17.767,7.606a7.606,7.606,0,1,1,7.606,7.606,7.606,7.606,0,0,1-7.606-7.606Zm6.338,48.17V76.058a5.071,5.071,0,1,1-10.141,0V40.707L9.432,48.249A5.068,5.068,0,0,1,.749,43.02L9.987,27.65a15.225,15.225,0,0,1,13.041-7.384h4.706A15.225,15.225,0,0,1,40.774,27.65l9.238,15.37a5.068,5.068,0,0,1-8.683,5.229l-4.548-7.542V76.058a5.071,5.071,0,1,1-10.141,0V55.776Z" transform="translate(1420.129 542.881)"/></g></svg>