<svg xmlns="http://www.w3.org/2000/svg" width="453.833" height="370.746" viewBox="0 0 453.833 370.746"><defs><style>.a,.c,.f{fill:none;}.a{stroke:#ccc;stroke-dasharray:4 2;}.b{fill:#f79760;stroke:rgba(0,0,0,0);opacity:0.2;}.b,.c{stroke-linejoin:round;}.c,.d{stroke:#7300ff;stroke-width:2px;}.d{fill:#fff;}.e{stroke:none;}</style></defs><g transform="translate(-1103.5 2077)"><g transform="translate(1107.898 -2076.5)"><line class="a" x2="445.038" transform="translate(0 369.266)"/><line class="a" x2="445.038" transform="translate(0 276.95)"/><line class="a" x2="445" transform="translate(0.102 184.746)"/><line class="a" x2="445.038" transform="translate(0 92.317)"/><line class="a" x2="445.038"/></g><path class="b" d="M1108-1739.065c14.771,0,59.4-74.045,74.173-74.045s59.4-74.045,74.173-74.045,59.4-74.045,74.173-74.045,59.4,185.113,74.173,185.113,59.4-74.045,74.173-74.045,59.4-74.045,74.173-74.045v222.135H1108Z" transform="translate(-0.102 -4.712)"/><path class="c" d="M1108-1739.065c14.771,0,59.4-74.045,74.173-74.045s59.4-74.045,74.173-74.045,59.4-74.045,74.173-74.045,59.4,185.113,74.173,185.113,59.4-74.045,74.173-74.045,59.4-74.045,74.173-74.045" transform="translate(-0.102 -4.712)"/><g transform="translate(1105.5 -1968.31)"><g class="d" transform="translate(0 222.135)"><circle class="e" cx="2.398" cy="2.398" r="2.398"/><circle class="f" cx="2.398" cy="2.398" r="3.398"/></g><g class="d" transform="translate(74.173 148.09)"><circle class="e" cx="2.398" cy="2.398" r="2.398"/><circle class="f" cx="2.398" cy="2.398" r="3.398"/></g><g class="d" transform="translate(148.346 74.045)"><circle class="e" cx="2.398" cy="2.398" r="2.398"/><circle class="f" cx="2.398" cy="2.398" r="3.398"/></g><g class="d" transform="translate(222.519)"><circle class="e" cx="2.398" cy="2.398" r="2.398"/><circle class="f" cx="2.398" cy="2.398" r="3.398"/></g><g class="d" transform="translate(296.692 185.113)"><circle class="e" cx="2.398" cy="2.398" r="2.398"/><circle class="f" cx="2.398" cy="2.398" r="3.398"/></g><g class="d" transform="translate(370.865 111.068)"><circle class="e" cx="2.398" cy="2.398" r="2.398"/><circle class="f" cx="2.398" cy="2.398" r="3.398"/></g><g class="d" transform="translate(445.038 37.023)"><circle class="e" cx="2.398" cy="2.398" r="2.398"/><circle class="f" cx="2.398" cy="2.398" r="3.398"/></g></g></g></svg>