<svg xmlns="http://www.w3.org/2000/svg" width="468" height="67" viewBox="0 0 468 67"><defs><style>.a{fill:#fff;opacity:0.5;}.b,.c{stroke:none;}.c{fill:#707070;}</style></defs><g class="a"><path class="b" d="M 448 66.5 L 20 66.5 C 14.77170562744141 66.5 9.860764503479004 64.86006164550781 6.17194128036499 61.88229370117188 C 2.514353036880493 58.92976379394531 0.5 55.01370620727539 0.5 50.85541152954102 L 0.5 16.14458847045898 C 0.5 11.98629379272461 2.514353036880493 8.070235252380371 6.17194128036499 5.117705821990967 C 9.860764503479004 2.139941215515137 14.77170562744141 0.5 20 0.5 L 448 0.5 C 453.2283020019531 0.5 458.1392211914062 2.139941215515137 461.8280639648438 5.117705821990967 C 465.4856567382812 8.070235252380371 467.5 11.98629379272461 467.5 16.14458847045898 L 467.5 50.85541152954102 C 467.5 55.01370620727539 465.4856567382812 58.92976379394531 461.8280639648438 61.88229370117188 C 458.1392211914062 64.86006164550781 453.2283020019531 66.5 448 66.5 Z"/><path class="c" d="M 20 1 C 9.523345947265625 1 1 7.7938232421875 1 16.14458847045898 L 1 50.85541152954102 C 1 59.2061767578125 9.523345947265625 66 20 66 L 448 66 C 458.4766540527344 66 467 59.2061767578125 467 50.85541152954102 L 467 16.14458847045898 C 467 7.7938232421875 458.4766540527344 1 448 1 L 20 1 M 20 0 L 448 0 C 459.0457153320312 0 468 7.228176116943359 468 16.14458847045898 L 468 50.85541152954102 C 468 59.77182388305664 459.0457153320312 67 448 67 L 20 67 C 8.95428466796875 67 0 59.77182388305664 0 50.85541152954102 L 0 16.14458847045898 C 0 7.228176116943359 8.95428466796875 0 20 0 Z"/></g></svg>