<svg xmlns="http://www.w3.org/2000/svg" width="468" height="58" viewBox="0 0 468 58"><defs><style>.a{fill:#fff;opacity:0.5;}.b,.c{stroke:none;}.c{fill:#707070;}</style></defs><g class="a"><path class="b" d="M 448 57.5 L 20 57.5 C 9.247647285461426 57.5 0.5 51.45476531982422 0.5 44.02411651611328 L 0.5 13.9758825302124 C 0.5 6.545235157012939 9.247647285461426 0.5 20 0.5 L 448 0.5 C 458.7523498535156 0.5 467.5 6.545235157012939 467.5 13.9758825302124 L 467.5 44.02411651611328 C 467.5 51.45476531982422 458.7523498535156 57.5 448 57.5 Z"/><path class="c" d="M 20 1 C 14.86077880859375 1 10.04177856445312 2.389705657958984 6.430633544921875 4.913116455078125 C 2.92864990234375 7.3603515625 1 10.57888412475586 1 13.97588348388672 L 1 44.02411651611328 C 1 47.42111968994141 2.92864990234375 50.6396484375 6.430633544921875 53.08688354492188 C 10.04177856445312 55.61029434204102 14.86077880859375 57 20 57 L 448 57 C 453.1392211914062 57 457.9582214355469 55.61029434204102 461.5693664550781 53.08688354492188 C 465.0713500976562 50.6396484375 467 47.42111968994141 467 44.02411651611328 L 467 13.97588348388672 C 467 10.57888412475586 465.0713500976562 7.3603515625 461.5693664550781 4.913116455078125 C 457.9582214355469 2.389705657958984 453.1392211914062 1 448 1 L 20 1 M 20 0 L 448 0 C 459.0457153320312 0 468 6.257236480712891 468 13.97588348388672 L 468 44.02411651611328 C 468 51.74276351928711 459.0457153320312 58 448 58 L 20 58 C 8.95428466796875 58 0 51.74276351928711 0 44.02411651611328 L 0 13.97588348388672 C 0 6.257236480712891 8.95428466796875 0 20 0 Z"/></g></svg>