<svg xmlns="http://www.w3.org/2000/svg" width="516.008" height="516.006" viewBox="0 0 516.008 516.006"><defs><style>.a{fill:#e34680;}.b{fill:#ff7723;}.c{fill:#8e30ff;}</style></defs><g transform="translate(-779.998 -478)"><path class="a" d="M0,0H258A258,258,0,0,1,102.877,236.6a258,258,0,0,1-278.833-47.912Z" transform="translate(1038 736) rotate(-90)"/><path class="b" d="M0,0-175.956,188.689A258,258,0,0,1-251.388-58.037,258,258,0,0,1-75.432-246.727Z" transform="translate(1038 736) rotate(-90)"/><path class="c" d="M0,0-75.432-246.727a258,258,0,0,1,228.9,39.332A258,258,0,0,1,258,0Z" transform="translate(1038 736) rotate(-90)"/></g></svg>